<svg width="978" height="856" viewBox="0 0 978 856" fill="none" xmlns="http://www.w3.org/2000/svg">
<circle cx="489" cy="428" r="489" fill="url(#paint0_radial_87_2854)"/>
<circle cx="489" cy="428" r="343" fill="url(#paint1_radial_87_2854)"/>
<circle cx="489" cy="428" r="160" fill="url(#paint2_radial_87_2854)"/>
<path d="M488.074 427.095L369.982 632.441L373.141 634.27L491.232 428.925L488.074 427.095Z" fill="url(#paint3_radial_87_2854)" fill-opacity="0.33"/>
<path d="M489.66 426.188H253.43V429.848H489.66V426.188Z" fill="url(#paint4_radial_87_2854)" fill-opacity="0.33"/>
<path d="M489.66 648.092C368.737 648.092 270.387 549.346 270.387 428.018C270.387 306.654 368.737 207.908 489.66 207.908C610.583 207.908 708.934 306.654 708.934 428.018C708.97 549.346 610.583 648.092 489.66 648.092ZM489.66 211.568C370.743 211.568 274.033 308.667 274.033 428.018C274.033 547.37 370.779 644.432 489.66 644.432C608.541 644.432 705.287 547.333 705.287 428.018C705.324 308.667 608.578 211.568 489.66 211.568Z" fill="url(#paint5_radial_87_2854)" fill-opacity="0.33"/>
<path d="M608.833 635.172H370.487L251.315 428.018L251.825 427.103L370.487 220.828H608.833L728.006 427.982L727.495 428.897L608.833 635.172ZM372.602 631.512H606.754L723.812 428.018L606.754 224.524H372.602L255.545 428.018L372.602 631.512Z" fill="url(#paint6_radial_87_2854)" fill-opacity="0.33"/>
<path d="M373.131 221.734L369.973 223.564L488.088 428.886L491.246 427.056L373.131 221.734Z" fill="url(#paint7_radial_87_2854)" fill-opacity="0.33"/>
<path d="M669.696 531.925H309.661L489.66 218.998L669.696 531.925ZM315.97 528.265H663.351L489.66 226.318L315.97 528.265Z" fill="url(#paint8_radial_87_2854)" fill-opacity="0.33"/>
<path d="M489.66 637.002L309.552 323.892H669.805L489.66 637.002ZM315.86 327.552L489.66 629.682L663.46 327.552H315.86Z" fill="url(#paint9_radial_87_2854)" fill-opacity="0.33"/>
<path d="M491.484 222.658H487.837V427.982H491.484V222.658Z" fill="url(#paint10_radial_87_2854)" fill-opacity="0.33"/>
<path d="M488.751 426.363L311.918 528.505L313.737 531.677L490.57 429.535L488.751 426.363Z" fill="url(#paint11_radial_87_2854)" fill-opacity="0.33"/>
<path d="M490.574 426.432L488.756 429.605L665.61 531.705L667.428 528.533L490.574 426.432Z" fill="url(#paint12_radial_87_2854)" fill-opacity="0.33"/>
<path d="M489.66 532.108C432.444 532.108 385.913 485.407 385.913 427.982C385.913 370.557 432.444 323.856 489.66 323.856C546.876 323.856 593.408 370.557 593.408 427.982C593.408 485.407 546.876 532.108 489.66 532.108ZM489.66 327.553C434.45 327.553 389.559 372.607 389.559 428.018C389.559 483.43 434.45 528.484 489.66 528.484C544.871 528.484 589.761 483.43 589.761 428.018C589.761 372.607 544.871 327.553 489.66 327.553Z" fill="url(#paint13_radial_87_2854)" fill-opacity="0.33"/>
<path d="M489.66 505.536C447.067 505.536 412.388 470.767 412.388 427.982C412.388 385.233 447.031 350.427 489.66 350.427C532.253 350.427 566.933 385.197 566.933 427.982C566.933 470.767 532.253 505.536 489.66 505.536ZM489.66 354.124C449.073 354.124 416.034 387.283 416.034 428.018C416.034 468.754 449.073 501.913 489.66 501.913C530.248 501.913 563.286 468.754 563.286 428.018C563.286 387.246 530.248 354.124 489.66 354.124Z" fill="url(#paint14_radial_87_2854)" fill-opacity="0.33"/>
<path d="M489.66 635.465L310.974 531.156L310.865 324.661L489.66 220.535L668.456 324.661L668.347 531.156L489.66 635.465ZM314.621 529.033L489.66 631.219L664.7 529.033L664.809 326.747L489.66 224.781L314.511 326.784L314.621 529.033Z" fill="url(#paint15_radial_87_2854)" fill-opacity="0.33"/>
<path d="M665.73 324.098L488.779 426.413L490.6 429.584L667.55 327.269L665.73 324.098Z" fill="url(#paint16_radial_87_2854)" fill-opacity="0.33"/>
<path d="M491.484 428.018H487.837V633.342H491.484V428.018Z" fill="url(#paint17_radial_87_2854)" fill-opacity="0.33"/>
<path d="M313.62 324.113L311.8 327.285L488.771 429.58L490.591 426.408L313.62 324.113Z" fill="url(#paint18_radial_87_2854)" fill-opacity="0.33"/>
<path d="M491.253 427.09L488.095 428.92L606.211 634.242L609.369 632.412L491.253 427.09Z" fill="url(#paint19_radial_87_2854)" fill-opacity="0.33"/>
<path d="M606.205 222.113L488.113 427.458L491.272 429.288L609.363 223.942L606.205 222.113Z" fill="url(#paint20_radial_87_2854)" fill-opacity="0.33"/>
<path d="M725.891 426.554H489.66V430.214H725.891V426.554Z" fill="url(#paint21_radial_87_2854)" fill-opacity="0.33"/>
<path d="M490.299 706.677L489.247 706.087L249.907 567.816V290.052L490.341 151.149L491.394 151.739L730.776 290.01V567.774L490.299 706.677ZM254.118 565.372L490.341 701.832L726.565 565.372V292.496L490.299 156.036L254.118 292.496V565.372Z" fill="url(#paint22_radial_87_2854)"/>
<path d="M729.326 566.65H251.315L490.3 152.021L729.326 566.65ZM258.51 562.484H722.089L490.3 160.352L258.51 562.484Z" fill="url(#paint23_radial_87_2854)"/>
<path d="M490.3 705.299L251.315 290.67H729.326L490.3 705.299ZM258.51 294.836L490.3 696.968L722.089 294.836H258.51Z" fill="url(#paint24_radial_87_2854)"/>
<path d="M492.405 153.593H488.194V428.913H492.405V153.593Z" fill="url(#paint25_radial_87_2854)"/>
<path d="M489.261 427.126L250.933 564.759L253.038 568.408L491.366 430.775L489.261 427.126Z" fill="url(#paint26_radial_87_2854)"/>
<path d="M491.375 427.134L489.27 430.782L727.57 568.442L729.675 564.794L491.375 427.134Z" fill="url(#paint27_radial_87_2854)"/>
<path d="M490.299 705.834C466.593 705.834 447.307 686.538 447.307 662.819C447.307 639.1 466.593 619.804 490.299 619.804C514.006 619.804 533.291 639.1 533.291 662.819C533.291 686.538 514.006 705.834 490.299 705.834ZM490.299 624.017C468.909 624.017 451.518 641.417 451.518 662.819C451.518 684.221 468.909 701.621 490.299 701.621C511.69 701.621 529.08 684.221 529.08 662.819C529.08 641.459 511.69 624.017 490.299 624.017Z" fill="url(#paint28_radial_87_2854)"/>
<path d="M490.299 499.86C451.181 499.86 419.39 468.052 419.39 428.913C419.39 389.774 451.181 357.966 490.299 357.966C529.375 357.966 561.209 389.774 561.209 428.913C561.209 468.052 529.417 499.86 490.299 499.86ZM490.299 362.221C453.539 362.221 423.601 392.133 423.601 428.955C423.601 465.777 453.539 495.689 490.299 495.689C527.059 495.689 556.998 465.777 556.998 428.955C556.998 392.133 527.101 362.221 490.299 362.221Z" fill="url(#paint29_radial_87_2854)"/>
<path d="M490.32 595.7C398.578 595.7 323.941 521.069 323.941 429.308C323.941 337.547 398.578 262.941 490.32 262.941C582.063 262.941 656.7 337.572 656.7 429.308C656.7 521.043 582.088 595.7 490.32 595.7ZM490.32 265.467C399.967 265.467 326.467 338.962 326.467 429.308C326.467 519.654 399.967 593.148 490.32 593.148C580.673 593.148 654.174 519.654 654.174 429.308C654.174 338.962 580.673 265.467 490.32 265.467Z" fill="#E37B0B"/>
<path d="M490.299 706.382C337.407 706.382 213.021 581.929 213.021 428.913C213.021 275.896 337.407 151.486 490.299 151.486C643.192 151.486 767.578 275.938 767.578 428.913C767.578 581.887 643.234 706.382 490.299 706.382ZM490.299 155.699C339.723 155.699 217.232 278.256 217.232 428.913C217.232 579.57 339.723 702.126 490.299 702.126C640.876 702.126 763.367 579.57 763.367 428.913C763.367 278.256 640.876 155.699 490.299 155.699Z" fill="#E37B0B"/>
<path d="M490.299 319.332C444.065 319.332 406.421 281.668 406.421 235.409C406.421 189.15 444.065 151.486 490.299 151.486C536.534 151.486 574.178 189.15 574.178 235.409C574.178 281.668 536.576 319.332 490.299 319.332ZM490.299 155.699C446.381 155.699 410.632 191.468 410.632 235.409C410.632 279.351 446.381 315.119 490.299 315.119C534.218 315.119 569.967 279.351 569.967 235.409C569.967 191.468 534.26 155.699 490.299 155.699Z" fill="url(#paint30_radial_87_2854)"/>
<defs>
<radialGradient id="paint0_radial_87_2854" cx="0" cy="0" r="1" gradientUnits="userSpaceOnUse" gradientTransform="translate(489 428) rotate(90) scale(489)">
<stop stop-color="#EB7A00" stop-opacity="0.64"/>
<stop offset="0.846875" stop-color="#EB7A00" stop-opacity="0"/>
</radialGradient>
<radialGradient id="paint1_radial_87_2854" cx="0" cy="0" r="1" gradientUnits="userSpaceOnUse" gradientTransform="translate(489 428) rotate(90) scale(343)">
<stop stop-color="#EB7A00"/>
<stop offset="0.836458" stop-color="#EB7A00" stop-opacity="0"/>
</radialGradient>
<radialGradient id="paint2_radial_87_2854" cx="0" cy="0" r="1" gradientUnits="userSpaceOnUse" gradientTransform="translate(489 428) rotate(90) scale(160)">
<stop stop-color="#EB7A00"/>
<stop offset="0.836458" stop-color="#EB7A00" stop-opacity="0"/>
</radialGradient>
<radialGradient id="paint3_radial_87_2854" cx="0" cy="0" r="1" gradientUnits="userSpaceOnUse" gradientTransform="translate(430.607 530.683) rotate(30.0833) scale(1.82502 118.44)">
<stop stop-color="#FFEAA1"/>
<stop offset="1" stop-color="#FFA223"/>
</radialGradient>
<radialGradient id="paint4_radial_87_2854" cx="0" cy="0" r="1" gradientUnits="userSpaceOnUse" gradientTransform="translate(371.545 428.018) rotate(90) scale(1.82998 118.115)">
<stop stop-color="#FFEAA1"/>
<stop offset="1" stop-color="#FFA223"/>
</radialGradient>
<radialGradient id="paint5_radial_87_2854" cx="0" cy="0" r="1" gradientUnits="userSpaceOnUse" gradientTransform="translate(489.66 428) rotate(90) scale(220.092 219.274)">
<stop stop-color="#FFEAA1"/>
<stop offset="1" stop-color="#FFA223"/>
</radialGradient>
<radialGradient id="paint6_radial_87_2854" cx="0" cy="0" r="1" gradientUnits="userSpaceOnUse" gradientTransform="translate(489.66 428) rotate(90) scale(207.172 238.346)">
<stop stop-color="#FFEAA1"/>
<stop offset="1" stop-color="#FFA223"/>
</radialGradient>
<radialGradient id="paint7_radial_87_2854" cx="0" cy="0" r="1" gradientUnits="userSpaceOnUse" gradientTransform="translate(430.609 325.31) rotate(60.0895) scale(118.436 1.82495)">
<stop stop-color="#FFEAA1"/>
<stop offset="1" stop-color="#FFA223"/>
</radialGradient>
<radialGradient id="paint8_radial_87_2854" cx="0" cy="0" r="1" gradientUnits="userSpaceOnUse" gradientTransform="translate(489.678 375.461) rotate(90) scale(156.463 180.017)">
<stop stop-color="#FFEAA1"/>
<stop offset="1" stop-color="#FFA223"/>
</radialGradient>
<radialGradient id="paint9_radial_87_2854" cx="0" cy="0" r="1" gradientUnits="userSpaceOnUse" gradientTransform="translate(489.678 480.447) rotate(90) scale(156.555 180.127)">
<stop stop-color="#FFEAA1"/>
<stop offset="1" stop-color="#FFA223"/>
</radialGradient>
<radialGradient id="paint10_radial_87_2854" cx="0" cy="0" r="1" gradientUnits="userSpaceOnUse" gradientTransform="translate(489.66 325.32) rotate(90) scale(102.662 1.82333)">
<stop stop-color="#FFEAA1"/>
<stop offset="1" stop-color="#FFA223"/>
</radialGradient>
<radialGradient id="paint11_radial_87_2854" cx="0" cy="0" r="1" gradientUnits="userSpaceOnUse" gradientTransform="translate(401.244 479.02) rotate(60.169) scale(1.8283 102.106)">
<stop stop-color="#FFEAA1"/>
<stop offset="1" stop-color="#FFA223"/>
</radialGradient>
<radialGradient id="paint12_radial_87_2854" cx="0" cy="0" r="1" gradientUnits="userSpaceOnUse" gradientTransform="translate(578.092 479.069) rotate(29.9986) scale(102.105 1.82827)">
<stop stop-color="#FFEAA1"/>
<stop offset="1" stop-color="#FFA223"/>
</radialGradient>
<radialGradient id="paint13_radial_87_2854" cx="0" cy="0" r="1" gradientUnits="userSpaceOnUse" gradientTransform="translate(489.66 427.982) rotate(90) scale(104.126 103.747)">
<stop stop-color="#FFEAA1"/>
<stop offset="1" stop-color="#FFA223"/>
</radialGradient>
<radialGradient id="paint14_radial_87_2854" cx="0" cy="0" r="1" gradientUnits="userSpaceOnUse" gradientTransform="translate(489.66 427.982) rotate(90) scale(77.5546 77.2727)">
<stop stop-color="#FFEAA1"/>
<stop offset="1" stop-color="#FFA223"/>
</radialGradient>
<radialGradient id="paint15_radial_87_2854" cx="0" cy="0" r="1" gradientUnits="userSpaceOnUse" gradientTransform="translate(489.66 428) rotate(90) scale(207.465 178.796)">
<stop stop-color="#FFEAA1"/>
<stop offset="1" stop-color="#FFA223"/>
</radialGradient>
<radialGradient id="paint16_radial_87_2854" cx="0" cy="0" r="1" gradientUnits="userSpaceOnUse" gradientTransform="translate(578.165 376.841) rotate(60.1434) scale(1.82835 102.2)">
<stop stop-color="#FFEAA1"/>
<stop offset="1" stop-color="#FFA223"/>
</radialGradient>
<radialGradient id="paint17_radial_87_2854" cx="0" cy="0" r="1" gradientUnits="userSpaceOnUse" gradientTransform="translate(489.66 530.68) rotate(90) scale(102.662 1.82333)">
<stop stop-color="#FFEAA1"/>
<stop offset="1" stop-color="#FFA223"/>
</radialGradient>
<radialGradient id="paint18_radial_87_2854" cx="0" cy="0" r="1" gradientUnits="userSpaceOnUse" gradientTransform="translate(401.195 376.846) rotate(30.0292) scale(102.204 1.8284)">
<stop stop-color="#FFEAA1"/>
<stop offset="1" stop-color="#FFA223"/>
</radialGradient>
<radialGradient id="paint19_radial_87_2854" cx="0" cy="0" r="1" gradientUnits="userSpaceOnUse" gradientTransform="translate(548.732 530.666) rotate(60.0895) scale(118.436 1.82495)">
<stop stop-color="#FFEAA1"/>
<stop offset="1" stop-color="#FFA223"/>
</radialGradient>
<radialGradient id="paint20_radial_87_2854" cx="0" cy="0" r="1" gradientUnits="userSpaceOnUse" gradientTransform="translate(548.738 325.7) rotate(30.0833) scale(1.82502 118.44)">
<stop stop-color="#FFEAA1"/>
<stop offset="1" stop-color="#FFA223"/>
</radialGradient>
<radialGradient id="paint21_radial_87_2854" cx="0" cy="0" r="1" gradientUnits="userSpaceOnUse" gradientTransform="translate(607.776 428.384) rotate(90) scale(1.82998 118.115)">
<stop stop-color="#FFEAA1"/>
<stop offset="1" stop-color="#FFA223"/>
</radialGradient>
<radialGradient id="paint22_radial_87_2854" cx="0" cy="0" r="1" gradientUnits="userSpaceOnUse" gradientTransform="translate(490.342 428.913) rotate(90) scale(277.764 240.434)">
<stop stop-color="#F6820B"/>
<stop offset="1" stop-color="#FFB336"/>
</radialGradient>
<radialGradient id="paint23_radial_87_2854" cx="0" cy="0" r="1" gradientUnits="userSpaceOnUse" gradientTransform="translate(490.32 359.335) rotate(90) scale(207.315 239.006)">
<stop stop-color="#F6820B"/>
<stop offset="1" stop-color="#FFB336"/>
</radialGradient>
<radialGradient id="paint24_radial_87_2854" cx="0" cy="0" r="1" gradientUnits="userSpaceOnUse" gradientTransform="translate(490.32 497.985) rotate(90) scale(207.315 239.006)">
<stop stop-color="#F6820B"/>
<stop offset="1" stop-color="#FFB336"/>
</radialGradient>
<radialGradient id="paint25_radial_87_2854" cx="0" cy="0" r="1" gradientUnits="userSpaceOnUse" gradientTransform="translate(490.299 291.253) rotate(90) scale(137.66 2.10538)">
<stop stop-color="#F6820B"/>
<stop offset="1" stop-color="#FFB336"/>
</radialGradient>
<radialGradient id="paint26_radial_87_2854" cx="0" cy="0" r="1" gradientUnits="userSpaceOnUse" gradientTransform="translate(371.15 497.767) rotate(60.0203) scale(2.10625 137.607)">
<stop stop-color="#F6820B"/>
<stop offset="1" stop-color="#FFB336"/>
</radialGradient>
<radialGradient id="paint27_radial_87_2854" cx="0" cy="0" r="1" gradientUnits="userSpaceOnUse" gradientTransform="translate(609.472 497.788) rotate(30.014) scale(137.602 2.10618)">
<stop stop-color="#F6820B"/>
<stop offset="1" stop-color="#FFB336"/>
</radialGradient>
<radialGradient id="paint28_radial_87_2854" cx="0" cy="0" r="1" gradientUnits="userSpaceOnUse" gradientTransform="translate(490.299 662.819) rotate(90) scale(43.0148 42.9919)">
<stop stop-color="#F6820B"/>
<stop offset="1" stop-color="#FFB336"/>
</radialGradient>
<radialGradient id="paint29_radial_87_2854" cx="0" cy="0" r="1" gradientUnits="userSpaceOnUse" gradientTransform="translate(490.299 428.913) rotate(90) scale(70.9471 70.9092)">
<stop stop-color="#F6820B"/>
<stop offset="1" stop-color="#FFB336"/>
</radialGradient>
<radialGradient id="paint30_radial_87_2854" cx="0" cy="0" r="1" gradientUnits="userSpaceOnUse" gradientTransform="translate(490.299 235.409) rotate(90) scale(83.9231 83.8784)">
<stop stop-color="#F6820B"/>
<stop offset="1" stop-color="#FFB336"/>
</radialGradient>
</defs>
</svg>
