<svg width="555" height="556" viewBox="0 0 555 556" fill="none" xmlns="http://www.w3.org/2000/svg">
<path d="M277.299 555.677L276.247 555.087L36.907 416.816V139.052L277.341 0.14917L278.394 0.738991L517.776 139.01V416.774L277.299 555.677ZM41.1177 414.372L277.341 550.832L513.565 414.372V141.496L277.299 5.03626L41.1177 141.496V414.372Z" fill="url(#paint0_radial_100_25165)"/>
<path d="M516.326 415.65H38.3145L277.3 1.02063L516.326 415.65ZM45.5098 411.484H509.089L277.3 9.35237L45.5098 411.484Z" fill="url(#paint1_radial_100_25165)"/>
<path d="M277.3 554.299L38.3145 139.67H516.326L277.3 554.299ZM45.5098 143.836L277.3 545.968L509.089 143.836H45.5098Z" fill="url(#paint2_radial_100_25165)"/>
<path d="M279.405 2.59253H275.194V277.913H279.405V2.59253Z" fill="url(#paint3_radial_100_25165)"/>
<path d="M276.261 276.126L37.9333 413.759L40.0383 417.408L278.366 279.775L276.261 276.126Z" fill="url(#paint4_radial_100_25165)"/>
<path d="M278.375 276.134L276.27 279.782L514.57 417.442L516.675 413.794L278.375 276.134Z" fill="url(#paint5_radial_100_25165)"/>
<path d="M277.299 554.834C253.593 554.834 234.308 535.538 234.308 511.819C234.308 488.1 253.593 468.804 277.299 468.804C301.006 468.804 320.291 488.1 320.291 511.819C320.291 535.538 301.006 554.834 277.299 554.834ZM277.299 473.017C255.909 473.017 238.518 490.417 238.518 511.819C238.518 533.221 255.909 550.621 277.299 550.621C298.69 550.621 316.081 533.221 316.081 511.819C316.081 490.459 298.69 473.017 277.299 473.017Z" fill="url(#paint6_radial_100_25165)"/>
<path d="M277.299 348.86C238.181 348.86 206.39 317.052 206.39 277.913C206.39 238.774 238.181 206.966 277.299 206.966C316.375 206.966 348.209 238.774 348.209 277.913C348.209 317.052 316.417 348.86 277.299 348.86ZM277.299 211.221C240.539 211.221 210.601 241.133 210.601 277.955C210.601 314.777 240.539 344.689 277.299 344.689C314.059 344.689 343.998 314.777 343.998 277.955C343.998 241.133 314.101 211.221 277.299 211.221Z" fill="url(#paint7_radial_100_25165)"/>
<path d="M277.32 444.7C185.578 444.7 110.941 370.069 110.941 278.308C110.941 186.547 185.578 111.941 277.32 111.941C369.063 111.941 443.7 186.572 443.7 278.308C443.7 370.043 369.088 444.7 277.32 444.7ZM277.32 114.467C186.968 114.467 113.467 187.962 113.467 278.308C113.467 368.654 186.968 442.148 277.32 442.148C367.673 442.148 441.174 368.654 441.174 278.308C441.174 187.962 367.673 114.467 277.32 114.467Z" fill="#E37B0B"/>
<path d="M277.299 555.382C124.407 555.382 0.020752 430.929 0.020752 277.913C0.020752 124.896 124.407 0.486084 277.299 0.486084C430.192 0.486084 554.578 124.938 554.578 277.913C554.578 430.887 430.234 555.382 277.299 555.382ZM277.299 4.69909C126.723 4.69909 4.23151 127.256 4.23151 277.913C4.23151 428.57 126.723 551.126 277.299 551.126C427.876 551.126 550.367 428.57 550.367 277.913C550.367 127.256 427.876 4.69909 277.299 4.69909Z" fill="#E37B0B"/>
<path d="M277.299 168.332C231.065 168.332 193.421 130.668 193.421 84.4092C193.421 38.1504 231.065 0.486084 277.299 0.486084C323.533 0.486084 361.178 38.1504 361.178 84.4092C361.178 130.668 323.576 168.332 277.299 168.332ZM277.299 4.69909C233.381 4.69909 197.632 40.4675 197.632 84.4092C197.632 128.351 233.381 164.119 277.299 164.119C321.217 164.119 356.967 128.351 356.967 84.4092C356.967 40.4675 321.26 4.69909 277.299 4.69909Z" fill="url(#paint8_radial_100_25165)"/>
<defs>
<radialGradient id="paint0_radial_100_25165" cx="0" cy="0" r="1" gradientUnits="userSpaceOnUse" gradientTransform="translate(277.341 277.913) rotate(90) scale(277.764 240.434)">
<stop stop-color="#F6820B"/>
<stop offset="1" stop-color="#FFB336"/>
</radialGradient>
<radialGradient id="paint1_radial_100_25165" cx="0" cy="0" r="1" gradientUnits="userSpaceOnUse" gradientTransform="translate(277.32 208.335) rotate(90) scale(207.315 239.006)">
<stop stop-color="#F6820B"/>
<stop offset="1" stop-color="#FFB336"/>
</radialGradient>
<radialGradient id="paint2_radial_100_25165" cx="0" cy="0" r="1" gradientUnits="userSpaceOnUse" gradientTransform="translate(277.32 346.985) rotate(90) scale(207.315 239.006)">
<stop stop-color="#F6820B"/>
<stop offset="1" stop-color="#FFB336"/>
</radialGradient>
<radialGradient id="paint3_radial_100_25165" cx="0" cy="0" r="1" gradientUnits="userSpaceOnUse" gradientTransform="translate(277.299 140.253) rotate(90) scale(137.66 2.10538)">
<stop stop-color="#F6820B"/>
<stop offset="1" stop-color="#FFB336"/>
</radialGradient>
<radialGradient id="paint4_radial_100_25165" cx="0" cy="0" r="1" gradientUnits="userSpaceOnUse" gradientTransform="translate(158.15 346.767) rotate(60.0203) scale(2.10625 137.607)">
<stop stop-color="#F6820B"/>
<stop offset="1" stop-color="#FFB336"/>
</radialGradient>
<radialGradient id="paint5_radial_100_25165" cx="0" cy="0" r="1" gradientUnits="userSpaceOnUse" gradientTransform="translate(396.472 346.788) rotate(30.014) scale(137.602 2.10618)">
<stop stop-color="#F6820B"/>
<stop offset="1" stop-color="#FFB336"/>
</radialGradient>
<radialGradient id="paint6_radial_100_25165" cx="0" cy="0" r="1" gradientUnits="userSpaceOnUse" gradientTransform="translate(277.299 511.819) rotate(90) scale(43.0148 42.9919)">
<stop stop-color="#F6820B"/>
<stop offset="1" stop-color="#FFB336"/>
</radialGradient>
<radialGradient id="paint7_radial_100_25165" cx="0" cy="0" r="1" gradientUnits="userSpaceOnUse" gradientTransform="translate(277.299 277.913) rotate(90) scale(70.9471 70.9092)">
<stop stop-color="#F6820B"/>
<stop offset="1" stop-color="#FFB336"/>
</radialGradient>
<radialGradient id="paint8_radial_100_25165" cx="0" cy="0" r="1" gradientUnits="userSpaceOnUse" gradientTransform="translate(277.299 84.4092) rotate(90) scale(83.9231 83.8784)">
<stop stop-color="#F6820B"/>
<stop offset="1" stop-color="#FFB336"/>
</radialGradient>
</defs>
</svg>
