<svg width="478" height="442" viewBox="0 0 478 442" fill="none" xmlns="http://www.w3.org/2000/svg">
<path d="M237.074 220.095L118.982 425.441L122.141 427.27L240.232 221.925L237.074 220.095Z" fill="url(#paint0_radial_100_25125)" fill-opacity="0.33"/>
<path d="M238.66 219.188H2.42944V222.848H238.66V219.188Z" fill="url(#paint1_radial_100_25125)" fill-opacity="0.33"/>
<path d="M238.66 441.092C117.737 441.092 19.3865 342.346 19.3865 221.018C19.3865 99.6541 117.737 0.908447 238.66 0.908447C359.583 0.908447 457.934 99.6541 457.934 221.018C457.97 342.346 359.583 441.092 238.66 441.092ZM238.66 4.56841C119.743 4.56841 23.0331 101.667 23.0331 221.018C23.0331 340.37 119.779 437.432 238.66 437.432C357.541 437.432 454.287 340.333 454.287 221.018C454.324 101.667 357.578 4.56841 238.66 4.56841Z" fill="url(#paint2_radial_100_25125)" fill-opacity="0.33"/>
<path d="M357.833 428.172H119.487L0.314453 221.018L0.824986 220.103L119.487 13.8279H357.833L477.006 220.982L476.495 221.897L357.833 428.172ZM121.602 424.512H355.754L472.812 221.018L355.754 17.5244H121.602L4.54458 221.018L121.602 424.512Z" fill="url(#paint3_radial_100_25125)" fill-opacity="0.33"/>
<path d="M122.13 14.7344L118.972 16.5643L237.088 221.886L240.246 220.056L122.13 14.7344Z" fill="url(#paint4_radial_100_25125)" fill-opacity="0.33"/>
<path d="M418.696 324.925H58.6609L238.66 11.998L418.696 324.925ZM64.9696 321.265H412.35L238.66 19.318L64.9696 321.265Z" fill="url(#paint5_radial_100_25125)" fill-opacity="0.33"/>
<path d="M238.66 430.002L58.5515 116.892H418.805L238.66 430.002ZM64.8602 120.552L238.66 422.682L412.46 120.552H64.8602Z" fill="url(#paint6_radial_100_25125)" fill-opacity="0.33"/>
<path d="M240.483 15.658H236.837V220.982H240.483V15.658Z" fill="url(#paint7_radial_100_25125)" fill-opacity="0.33"/>
<path d="M237.751 219.363L60.918 321.505L62.7369 324.677L239.57 222.535L237.751 219.363Z" fill="url(#paint8_radial_100_25125)" fill-opacity="0.33"/>
<path d="M239.574 219.432L237.756 222.605L414.609 324.705L416.428 321.533L239.574 219.432Z" fill="url(#paint9_radial_100_25125)" fill-opacity="0.33"/>
<path d="M238.66 325.108C181.444 325.108 134.913 278.407 134.913 220.982C134.913 163.557 181.444 116.856 238.66 116.856C295.876 116.856 342.408 163.557 342.408 220.982C342.408 278.407 295.876 325.108 238.66 325.108ZM238.66 120.553C183.45 120.553 138.559 165.607 138.559 221.018C138.559 276.43 183.45 321.484 238.66 321.484C293.871 321.484 338.761 276.43 338.761 221.018C338.761 165.607 293.871 120.553 238.66 120.553Z" fill="url(#paint10_radial_100_25125)" fill-opacity="0.33"/>
<path d="M238.66 298.536C196.067 298.536 161.387 263.767 161.387 220.982C161.387 178.233 196.03 143.427 238.66 143.427C281.253 143.427 315.933 178.197 315.933 220.982C315.933 263.767 281.253 298.536 238.66 298.536ZM238.66 147.124C198.073 147.124 165.034 180.283 165.034 221.018C165.034 261.754 198.073 294.913 238.66 294.913C279.247 294.913 312.286 261.754 312.286 221.018C312.286 180.246 279.247 147.124 238.66 147.124Z" fill="url(#paint11_radial_100_25125)" fill-opacity="0.33"/>
<path d="M238.66 428.465L59.9737 324.156L59.8643 117.661L238.66 13.5352L417.456 117.661L417.346 324.156L238.66 428.465ZM63.6203 322.033L238.66 424.219L413.7 322.033L413.809 119.747L238.66 17.7807L63.5109 119.784L63.6203 322.033Z" fill="url(#paint12_radial_100_25125)" fill-opacity="0.33"/>
<path d="M414.729 117.098L237.779 219.413L239.599 222.584L416.55 120.269L414.729 117.098Z" fill="url(#paint13_radial_100_25125)" fill-opacity="0.33"/>
<path d="M240.483 221.018H236.837V426.342H240.483V221.018Z" fill="url(#paint14_radial_100_25125)" fill-opacity="0.33"/>
<path d="M62.6199 117.113L60.7998 120.285L237.771 222.58L239.591 219.408L62.6199 117.113Z" fill="url(#paint15_radial_100_25125)" fill-opacity="0.33"/>
<path d="M240.253 220.09L237.095 221.92L355.211 427.242L358.369 425.412L240.253 220.09Z" fill="url(#paint16_radial_100_25125)" fill-opacity="0.33"/>
<path d="M355.205 15.1125L237.113 220.458L240.272 222.288L358.363 16.9421L355.205 15.1125Z" fill="url(#paint17_radial_100_25125)" fill-opacity="0.33"/>
<path d="M474.891 219.554H238.66V223.214H474.891V219.554Z" fill="url(#paint18_radial_100_25125)" fill-opacity="0.33"/>
<defs>
<radialGradient id="paint0_radial_100_25125" cx="0" cy="0" r="1" gradientUnits="userSpaceOnUse" gradientTransform="translate(179.607 323.683) rotate(30.0833) scale(1.82502 118.44)">
<stop stop-color="#FFEAA1"/>
<stop offset="1" stop-color="#FFA223"/>
</radialGradient>
<radialGradient id="paint1_radial_100_25125" cx="0" cy="0" r="1" gradientUnits="userSpaceOnUse" gradientTransform="translate(120.545 221.018) rotate(90) scale(1.82998 118.115)">
<stop stop-color="#FFEAA1"/>
<stop offset="1" stop-color="#FFA223"/>
</radialGradient>
<radialGradient id="paint2_radial_100_25125" cx="0" cy="0" r="1" gradientUnits="userSpaceOnUse" gradientTransform="translate(238.66 221) rotate(90) scale(220.092 219.274)">
<stop stop-color="#FFEAA1"/>
<stop offset="1" stop-color="#FFA223"/>
</radialGradient>
<radialGradient id="paint3_radial_100_25125" cx="0" cy="0" r="1" gradientUnits="userSpaceOnUse" gradientTransform="translate(238.66 221) rotate(90) scale(207.172 238.346)">
<stop stop-color="#FFEAA1"/>
<stop offset="1" stop-color="#FFA223"/>
</radialGradient>
<radialGradient id="paint4_radial_100_25125" cx="0" cy="0" r="1" gradientUnits="userSpaceOnUse" gradientTransform="translate(179.609 118.31) rotate(60.0895) scale(118.436 1.82495)">
<stop stop-color="#FFEAA1"/>
<stop offset="1" stop-color="#FFA223"/>
</radialGradient>
<radialGradient id="paint5_radial_100_25125" cx="0" cy="0" r="1" gradientUnits="userSpaceOnUse" gradientTransform="translate(238.678 168.461) rotate(90) scale(156.463 180.017)">
<stop stop-color="#FFEAA1"/>
<stop offset="1" stop-color="#FFA223"/>
</radialGradient>
<radialGradient id="paint6_radial_100_25125" cx="0" cy="0" r="1" gradientUnits="userSpaceOnUse" gradientTransform="translate(238.678 273.447) rotate(90) scale(156.555 180.127)">
<stop stop-color="#FFEAA1"/>
<stop offset="1" stop-color="#FFA223"/>
</radialGradient>
<radialGradient id="paint7_radial_100_25125" cx="0" cy="0" r="1" gradientUnits="userSpaceOnUse" gradientTransform="translate(238.66 118.32) rotate(90) scale(102.662 1.82333)">
<stop stop-color="#FFEAA1"/>
<stop offset="1" stop-color="#FFA223"/>
</radialGradient>
<radialGradient id="paint8_radial_100_25125" cx="0" cy="0" r="1" gradientUnits="userSpaceOnUse" gradientTransform="translate(150.244 272.02) rotate(60.169) scale(1.8283 102.106)">
<stop stop-color="#FFEAA1"/>
<stop offset="1" stop-color="#FFA223"/>
</radialGradient>
<radialGradient id="paint9_radial_100_25125" cx="0" cy="0" r="1" gradientUnits="userSpaceOnUse" gradientTransform="translate(327.092 272.069) rotate(29.9986) scale(102.105 1.82827)">
<stop stop-color="#FFEAA1"/>
<stop offset="1" stop-color="#FFA223"/>
</radialGradient>
<radialGradient id="paint10_radial_100_25125" cx="0" cy="0" r="1" gradientUnits="userSpaceOnUse" gradientTransform="translate(238.66 220.982) rotate(90) scale(104.126 103.747)">
<stop stop-color="#FFEAA1"/>
<stop offset="1" stop-color="#FFA223"/>
</radialGradient>
<radialGradient id="paint11_radial_100_25125" cx="0" cy="0" r="1" gradientUnits="userSpaceOnUse" gradientTransform="translate(238.66 220.982) rotate(90) scale(77.5546 77.2727)">
<stop stop-color="#FFEAA1"/>
<stop offset="1" stop-color="#FFA223"/>
</radialGradient>
<radialGradient id="paint12_radial_100_25125" cx="0" cy="0" r="1" gradientUnits="userSpaceOnUse" gradientTransform="translate(238.66 221) rotate(90) scale(207.465 178.796)">
<stop stop-color="#FFEAA1"/>
<stop offset="1" stop-color="#FFA223"/>
</radialGradient>
<radialGradient id="paint13_radial_100_25125" cx="0" cy="0" r="1" gradientUnits="userSpaceOnUse" gradientTransform="translate(327.164 169.841) rotate(60.1434) scale(1.82835 102.2)">
<stop stop-color="#FFEAA1"/>
<stop offset="1" stop-color="#FFA223"/>
</radialGradient>
<radialGradient id="paint14_radial_100_25125" cx="0" cy="0" r="1" gradientUnits="userSpaceOnUse" gradientTransform="translate(238.66 323.68) rotate(90) scale(102.662 1.82333)">
<stop stop-color="#FFEAA1"/>
<stop offset="1" stop-color="#FFA223"/>
</radialGradient>
<radialGradient id="paint15_radial_100_25125" cx="0" cy="0" r="1" gradientUnits="userSpaceOnUse" gradientTransform="translate(150.195 169.846) rotate(30.0292) scale(102.204 1.8284)">
<stop stop-color="#FFEAA1"/>
<stop offset="1" stop-color="#FFA223"/>
</radialGradient>
<radialGradient id="paint16_radial_100_25125" cx="0" cy="0" r="1" gradientUnits="userSpaceOnUse" gradientTransform="translate(297.732 323.666) rotate(60.0895) scale(118.436 1.82495)">
<stop stop-color="#FFEAA1"/>
<stop offset="1" stop-color="#FFA223"/>
</radialGradient>
<radialGradient id="paint17_radial_100_25125" cx="0" cy="0" r="1" gradientUnits="userSpaceOnUse" gradientTransform="translate(297.738 118.7) rotate(30.0833) scale(1.82502 118.44)">
<stop stop-color="#FFEAA1"/>
<stop offset="1" stop-color="#FFA223"/>
</radialGradient>
<radialGradient id="paint18_radial_100_25125" cx="0" cy="0" r="1" gradientUnits="userSpaceOnUse" gradientTransform="translate(356.775 221.384) rotate(90) scale(1.82998 118.115)">
<stop stop-color="#FFEAA1"/>
<stop offset="1" stop-color="#FFA223"/>
</radialGradient>
</defs>
</svg>
