<svg width="248" height="248" viewBox="0 0 248 248" fill="none" xmlns="http://www.w3.org/2000/svg">
<circle cx="124" cy="124" r="112.5" stroke="#E5E5E5" stroke-width="13"/>
<g filter="url(#filter0_d_95_8574)">
<circle cx="124" cy="124" r="106" fill="white"/>
</g>
<g opacity="0.9">
<ellipse cx="123.5" cy="124" rx="96.5" ry="96" fill="url(#paint0_radial_95_8574)"/>
</g>
<g filter="url(#filter1_f_95_8574)">
<circle cx="124" cy="124" r="72" fill="white"/>
</g>
<g clip-path="url(#clip0_95_8574)">
<g opacity="0.9">
<path d="M132.95 64.44L138.24 29.4L138.81 25.62" stroke="#188F7B" stroke-miterlimit="10" stroke-linecap="round"/>
<path d="M140.72 59.36L148 31.36L148.95 27.7" stroke="#188F7B" stroke-miterlimit="10" stroke-linecap="round"/>
<path d="M147.7 60.4899L157.49 34.3299L158.81 30.8199" stroke="#188F7B" stroke-miterlimit="10" stroke-linecap="round"/>
<path d="M150.71 70.3699L166.64 38.2699L168.3 34.9399" stroke="#188F7B" stroke-miterlimit="10" stroke-linecap="round"/>
<path d="M174.33 45.33L160.6 67.03" stroke="#188F7B" stroke-miterlimit="10" stroke-linecap="round"/>
<path d="M165.51 71.48L183.26 48.7L184.33 47.33" stroke="#188F7B" stroke-miterlimit="10" stroke-linecap="round"/>
<path d="M163.93 83.07L191.01 55.42L193.5 52.87" stroke="#188F7B" stroke-miterlimit="10" stroke-linecap="round"/>
<path d="M174.33 82.19L197.83 62.71L200.51 60.49" stroke="#188F7B" stroke-miterlimit="10" stroke-linecap="round"/>
<path d="M179.78 86.72L203.86 70.67L206.69 68.78" stroke="#188F7B" stroke-miterlimit="10" stroke-linecap="round"/>
<path d="M175.38 97.06L209.35 79.84L210.33 79.33" stroke="#188F7B" stroke-miterlimit="10" stroke-linecap="round"/>
<path d="M179.92 102.6L213.29 88.2799L216.31 87.0699" stroke="#188F7B" stroke-miterlimit="10" stroke-linecap="round"/>
<path d="M214.33 99.33L185.82 107.25" stroke="#188F7B" stroke-miterlimit="10" stroke-linecap="round"/>
<path d="M186.23 113.15L218.85 107.49L221.93 106.96" stroke="#188F7B" stroke-miterlimit="10" stroke-linecap="round"/>
<path d="M188.98 120.23L220.08 118.08L223.17 117.87" stroke="#188F7B" stroke-miterlimit="10" stroke-linecap="round"/>
<path d="M191.3 126.4L220.27 127.46L223.33 127.57" stroke="#188F7B" stroke-miterlimit="10" stroke-linecap="round"/>
<path d="M190.72 133.39L219.43 137.45L222.42 137.87" stroke="#188F7B" stroke-miterlimit="10" stroke-linecap="round"/>
<path d="M189.41 140.29L217.54 147.31L220.44 148.03" stroke="#188F7B" stroke-miterlimit="10" stroke-linecap="round"/>
<path d="M180.73 145.93L214.63 156.92L217.42 157.93" stroke="#188F7B" stroke-miterlimit="10" stroke-linecap="round"/>
<path d="M207.33 165.33L179.54 152.16" stroke="#188F7B" stroke-miterlimit="10" stroke-linecap="round"/>
<path d="M181.27 159.64L205.84 174.94L208.37 176.51" stroke="#188F7B" stroke-miterlimit="10" stroke-linecap="round"/>
<path d="M178.63 166.48L200.09 183.16L202.46 185" stroke="#188F7B" stroke-miterlimit="10" stroke-linecap="round"/>
<path d="M172.73 170.66L193.61 190.64L194.33 191.33" stroke="#188F7B" stroke-miterlimit="10" stroke-linecap="round"/>
<path d="M167.54 175.53L186.19 197.59L188.15 199.91" stroke="#188F7B" stroke-miterlimit="10" stroke-linecap="round"/>
<path d="M177.33 202.33L161.99 179.75" stroke="#188F7B" stroke-miterlimit="10" stroke-linecap="round"/>
<path d="M151.69 175.53L169.63 208.86L171.07 211.54" stroke="#188F7B" stroke-miterlimit="10" stroke-linecap="round"/>
<path d="M149.58 186.4L160.56 213.13L161.72 215.96" stroke="#188F7B" stroke-miterlimit="10" stroke-linecap="round"/>
<path d="M142.95 188.71L151.1 216.44L151.96 219.38" stroke="#188F7B" stroke-miterlimit="10" stroke-linecap="round"/>
<path d="M136.11 190.29L141.33 218.75L141.89 221.78" stroke="#188F7B" stroke-miterlimit="10" stroke-linecap="round"/>
<path d="M128.65 184.66L131.39 220.04L131.63 223.12" stroke="#188F7B" stroke-miterlimit="10" stroke-linecap="round"/>
<path d="M122.15 191.29L121.37 220.3L121.29 223.38" stroke="#188F7B" stroke-miterlimit="10" stroke-linecap="round"/>
<path d="M116.16 178.94L111.37 219.54L110.97 222.56" stroke="#188F7B" stroke-miterlimit="10" stroke-linecap="round"/>
<path d="M108.52 187.03L101.33 216.33" stroke="#188F7B" stroke-miterlimit="10" stroke-linecap="round"/>
<path d="M101.59 186.14L91.8699 214.94L90.8799 217.76" stroke="#188F7B" stroke-miterlimit="10" stroke-linecap="round"/>
<path d="M94.2201 185.33L82.5901 211.15L81.3201 213.82" stroke="#188F7B" stroke-miterlimit="10" stroke-linecap="round"/>
<path d="M95.77 170.22L73.73 206.4L72.21 208.9" stroke="#188F7B" stroke-miterlimit="10" stroke-linecap="round"/>
<path d="M83.2999 177.3L65.4299 200.75L63.6699 203.06" stroke="#188F7B" stroke-miterlimit="10" stroke-linecap="round"/>
<path d="M76.9101 173.21L59.3301 191.33" stroke="#188F7B" stroke-miterlimit="10" stroke-linecap="round"/>
<path d="M76.9201 164.63L50.7701 187.05L48.6201 188.9" stroke="#188F7B" stroke-miterlimit="10" stroke-linecap="round"/>
<path d="M67.84 162.95L44.59 179.12L42.28 180.73" stroke="#188F7B" stroke-miterlimit="10" stroke-linecap="round"/>
<path d="M74.3601 151.26L39.2601 170.59L36.8201 171.94" stroke="#188F7B" stroke-miterlimit="10" stroke-linecap="round"/>
<path d="M62.4001 149.93L34.8501 161.56L32.3101 162.63" stroke="#188F7B" stroke-miterlimit="10" stroke-linecap="round"/>
<path d="M67.2001 139.74L32.3301 149.33" stroke="#188F7B" stroke-miterlimit="10" stroke-linecap="round"/>
<path d="M58.46 136.62L29.03 142.32L26.3 142.85" stroke="#188F7B" stroke-miterlimit="10" stroke-linecap="round"/>
<path d="M56.3701 129.59L27.6701 132.36L24.8601 132.61" stroke="#188F7B" stroke-miterlimit="10" stroke-linecap="round"/>
<path d="M57.35 122.82L27.35 122.32L24.5 122.27" stroke="#188F7B" stroke-miterlimit="10" stroke-linecap="round"/>
<path d="M60.89 115.92L28.09 112.3L25.21 111.95" stroke="#188F7B" stroke-miterlimit="10" stroke-linecap="round"/>
<path d="M60.49 109.42L29.86 102.42L26.99 101.76" stroke="#188F7B" stroke-miterlimit="10" stroke-linecap="round"/>
<path d="M63.7899 102.31L36.4399 93.29" stroke="#188F7B" stroke-miterlimit="10" stroke-linecap="round"/>
<path d="M68.6099 97.5599L36.4699 83.5L33.6699 82.2" stroke="#188F7B" stroke-miterlimit="10" stroke-linecap="round"/>
<path d="M66.83 89.93L41.23 74.67L38.5 73.05" stroke="#188F7B" stroke-miterlimit="10" stroke-linecap="round"/>
<path d="M81.29 92.11L46.87 66.41L44.25 64.45" stroke="#188F7B" stroke-miterlimit="10" stroke-linecap="round"/>
<path d="M77.8401 81.4L53.3301 58.78L50.8601 56.5" stroke="#188F7B" stroke-miterlimit="10" stroke-linecap="round"/>
<path d="M80.5501 73.61L61.3301 51.33" stroke="#188F7B" stroke-miterlimit="10" stroke-linecap="round"/>
<path d="M85.4699 69.74L68.4199 45.72L66.3799 42.85" stroke="#188F7B" stroke-miterlimit="10" stroke-linecap="round"/>
<path d="M91.3001 66.0301L76.8801 40.4401L75.1201 37.3101" stroke="#188F7B" stroke-miterlimit="10" stroke-linecap="round"/>
<path d="M103 72L85.5953 36.3984L84 33" stroke="#188F7B" stroke-miterlimit="10" stroke-linecap="round"/>
<path d="M102.93 60.82L93.6001 33.14L93.3301 32.33" stroke="#188F7B" stroke-miterlimit="10" stroke-linecap="round"/>
<path d="M110.43 57.58L104.85 30.19L104.1 26.5" stroke="#188F7B" stroke-miterlimit="10" stroke-linecap="round"/>
<path d="M119.13 68.78L115.36 28.7L115.33 28.33" stroke="#188F7B" stroke-miterlimit="10" stroke-linecap="round"/>
<path d="M124.39 61.35L124.63 28.34L124.66 24.5" stroke="#188F7B" stroke-miterlimit="10" stroke-linecap="round"/>
<path d="M131.93 37.4301L130.07 57.5801" stroke="#188F7B" stroke-miterlimit="10" stroke-linecap="round"/>
<path d="M140.87 38.73L136.66 60.45" stroke="#188F7B" stroke-miterlimit="10" stroke-linecap="round"/>
<path d="M149.64 40.9399L144.04 59.0399" stroke="#188F7B" stroke-miterlimit="10" stroke-linecap="round"/>
<path d="M158.12 44.0601L148.38 66.0501" stroke="#188F7B" stroke-miterlimit="10" stroke-linecap="round"/>
<path d="M166.24 48.05L156.49 65.5401" stroke="#188F7B" stroke-miterlimit="10" stroke-linecap="round"/>
<path d="M173.9 52.85L161.95 69.86" stroke="#188F7B" stroke-miterlimit="10" stroke-linecap="round"/>
<path d="M181.01 58.4301L164.08 76.7801" stroke="#188F7B" stroke-miterlimit="10" stroke-linecap="round"/>
<path d="M187.51 64.71L172.97 78.26" stroke="#188F7B" stroke-miterlimit="10" stroke-linecap="round"/>
<path d="M193.32 71.63L173.23 86.61" stroke="#188F7B" stroke-miterlimit="10" stroke-linecap="round"/>
<path d="M198.38 79.12L180.24 90.04" stroke="#188F7B" stroke-miterlimit="10" stroke-linecap="round"/>
<path d="M202.64 87.1L180.31 97.24" stroke="#188F7B" stroke-miterlimit="10" stroke-linecap="round"/>
<path d="M206.04 95.48L187.48 101.92" stroke="#188F7B" stroke-miterlimit="10" stroke-linecap="round"/>
<path d="M208.56 104.16L189.47 108.62" stroke="#188F7B" stroke-miterlimit="10" stroke-linecap="round"/>
<path d="M210.15 113.05L174.62 116.91" stroke="#188F7B" stroke-miterlimit="10" stroke-linecap="round"/>
<path d="M210.82 122.08L193.72 122.45" stroke="#188F7B" stroke-miterlimit="10" stroke-linecap="round"/>
<path d="M210.54 131.11L189.31 129.36" stroke="#188F7B" stroke-miterlimit="10" stroke-linecap="round"/>
<path d="M209.33 140.07L190.23 136.46" stroke="#188F7B" stroke-miterlimit="10" stroke-linecap="round"/>
<path d="M207.2 148.85L182.66 141.4" stroke="#188F7B" stroke-miterlimit="10" stroke-linecap="round"/>
<path d="M204.16 157.37L188.61 150.89" stroke="#188F7B" stroke-miterlimit="10" stroke-linecap="round"/>
<path d="M200.25 165.52L183.25 156.26" stroke="#188F7B" stroke-miterlimit="10" stroke-linecap="round"/>
<path d="M195.53 173.22L176.93 160.42" stroke="#188F7B" stroke-miterlimit="10" stroke-linecap="round"/>
<path d="M190.02 180.39L175.3 167.82" stroke="#188F7B" stroke-miterlimit="10" stroke-linecap="round"/>
<path d="M183.33 185.33L159.42 160.61" stroke="#188F7B" stroke-miterlimit="10" stroke-linecap="round"/>
<path d="M176.93 192.83L163.05 174.79" stroke="#188F7B" stroke-miterlimit="10" stroke-linecap="round"/>
<path d="M171.33 200.33L157.61 178.15" stroke="#188F7B" stroke-miterlimit="10" stroke-linecap="round"/>
<path d="M161.55 202.3L147.21 172.42" stroke="#188F7B" stroke-miterlimit="10" stroke-linecap="round"/>
<path d="M153.21 205.78L144.56 181.62" stroke="#188F7B" stroke-miterlimit="10" stroke-linecap="round"/>
<path d="M144.56 208.37L138.89 185.15" stroke="#188F7B" stroke-miterlimit="10" stroke-linecap="round"/>
<path d="M135.67 210.06L133.04 190.76" stroke="#188F7B" stroke-miterlimit="10" stroke-linecap="round"/>
<path d="M126.66 210.81L126.05 191.31" stroke="#188F7B" stroke-miterlimit="10" stroke-linecap="round"/>
<path d="M119.35 187.03L117.63 210.63" stroke="#188F7B" stroke-miterlimit="10" stroke-linecap="round"/>
<path d="M112.75 188.71L108.33 213.33" stroke="#188F7B" stroke-miterlimit="10" stroke-linecap="round"/>
<path d="M106.83 183.24L99.8501 207.45" stroke="#188F7B" stroke-miterlimit="10" stroke-linecap="round"/>
<path d="M101.93 178.27L91.3101 204.5" stroke="#188F7B" stroke-miterlimit="10" stroke-linecap="round"/>
<path d="M93.5701 182.33L83.1201 200.68" stroke="#188F7B" stroke-miterlimit="10" stroke-linecap="round"/>
<path d="M90.4901 173.58L75.3701 196.02" stroke="#188F7B" stroke-miterlimit="10" stroke-linecap="round"/>
<path d="M82.5599 173.37L68.1499 190.58" stroke="#188F7B" stroke-miterlimit="10" stroke-linecap="round"/>
<path d="M75.84 170.57L61.53 184.43" stroke="#188F7B" stroke-miterlimit="10" stroke-linecap="round"/>
<path d="M76.5501 161.79L54.3301 179.33" stroke="#188F7B" stroke-miterlimit="10" stroke-linecap="round"/>
<path d="M66.0099 160.61L50.3799 170.22" stroke="#188F7B" stroke-miterlimit="10" stroke-linecap="round"/>
<path d="M68.55 151.21L45.97 162.33" stroke="#188F7B" stroke-miterlimit="10" stroke-linecap="round"/>
<path d="M66.0899 145.28L42.3999 154.02" stroke="#188F7B" stroke-miterlimit="10" stroke-linecap="round"/>
<path d="M67.84 138.01L39.72 145.39" stroke="#188F7B" stroke-miterlimit="10" stroke-linecap="round"/>
<path d="M59.3899 133.39L37.95 136.53" stroke="#188F7B" stroke-miterlimit="10" stroke-linecap="round"/>
<path d="M63.4401 126.76L37.1101 127.52" stroke="#188F7B" stroke-miterlimit="10" stroke-linecap="round"/>
<path d="M71.24 120.64L37.21 118.49" stroke="#188F7B" stroke-miterlimit="10" stroke-linecap="round"/>
<path d="M58.1401 113.92L35.3301 110.33" stroke="#188F7B" stroke-miterlimit="10" stroke-linecap="round"/>
<path d="M59.83 106.13L40.21 100.68" stroke="#188F7B" stroke-miterlimit="10" stroke-linecap="round"/>
<path d="M67.0701 101.1L43.0801 92.11" stroke="#188F7B" stroke-miterlimit="10" stroke-linecap="round"/>
<path d="M66.5401 94.12L46.8301 83.88" stroke="#188F7B" stroke-miterlimit="10" stroke-linecap="round"/>
<path d="M69.6199 88.11L51.4099 76.09" stroke="#188F7B" stroke-miterlimit="10" stroke-linecap="round"/>
<path d="M72.57 81.7799L56.78 68.8199" stroke="#188F7B" stroke-miterlimit="10" stroke-linecap="round"/>
<path d="M82.1601 81.4L60.3301 59.33" stroke="#188F7B" stroke-miterlimit="10" stroke-linecap="round"/>
<path d="M81.2101 70.59L69.6201 56.12" stroke="#188F7B" stroke-miterlimit="10" stroke-linecap="round"/>
<path d="M89.47 70.33L76.96 50.85" stroke="#188F7B" stroke-miterlimit="10" stroke-linecap="round"/>
<path d="M97 69L85 46" stroke="#188F7B" stroke-miterlimit="10" stroke-linecap="round"/>
<path d="M102.75 66.52L91.3301 39.33" stroke="#188F7B" stroke-miterlimit="10" stroke-linecap="round"/>
<path d="M107.38 61.4399L101.69 39.95" stroke="#188F7B" stroke-miterlimit="10" stroke-linecap="round"/>
<path d="M113.98 60.15L110.54 38.09" stroke="#188F7B" stroke-miterlimit="10" stroke-linecap="round"/>
<path d="M120.56 57.44L119.53 37.17" stroke="#188F7B" stroke-miterlimit="10" stroke-linecap="round"/>
<path d="M128.57 37.1801L127.34 60.2601" stroke="#188F7B" stroke-miterlimit="10" stroke-linecap="round"/>
<path d="M134.2 44.53L132.2 59.76" stroke="#188F7B" stroke-miterlimit="10" stroke-linecap="round"/>
<path d="M142.33 43.33L138.17 62.75" stroke="#188F7B" stroke-miterlimit="10" stroke-linecap="round"/>
<path d="M150.39 48.37L145.09 63.51" stroke="#188F7B" stroke-miterlimit="10" stroke-linecap="round"/>
<path d="M158.71 50.25L147.74 71.88" stroke="#188F7B" stroke-miterlimit="10" stroke-linecap="round"/>
<path d="M163.33 58.33L155.64 71.34" stroke="#188F7B" stroke-miterlimit="10" stroke-linecap="round"/>
<path d="M172.33 60.15L165.03 69.42" stroke="#188F7B" stroke-miterlimit="10" stroke-linecap="round"/>
<path d="M178.7 65.52L169.75 75.07" stroke="#188F7B" stroke-miterlimit="10" stroke-linecap="round"/>
<path d="M184.47 71.52L174.62 80.06" stroke="#188F7B" stroke-miterlimit="10" stroke-linecap="round"/>
<path d="M189.59 78.1L176.01 87.53" stroke="#188F7B" stroke-miterlimit="10" stroke-linecap="round"/>
<path d="M194 85.16L182.7 91.42" stroke="#188F7B" stroke-miterlimit="10" stroke-linecap="round"/>
<path d="M197.65 92.65L180.31 99.47" stroke="#188F7B" stroke-miterlimit="10" stroke-linecap="round"/>
<path d="M195.33 102.33L188.35 104.49" stroke="#188F7B" stroke-miterlimit="10" stroke-linecap="round"/>
<path d="M202.53 108.56L188.61 111.28" stroke="#188F7B" stroke-miterlimit="10" stroke-linecap="round"/>
<path d="M204.93 116.44L181.53 118.78" stroke="#188F7B" stroke-miterlimit="10" stroke-linecap="round"/>
<path d="M204.01 125.13L184.47 124.84" stroke="#188F7B" stroke-miterlimit="10" stroke-linecap="round"/>
<path d="M203.46 133.45L193.67 132.28" stroke="#188F7B" stroke-miterlimit="10" stroke-linecap="round"/>
<path d="M202.05 141.65L184.41 137.65" stroke="#188F7B" stroke-miterlimit="10" stroke-linecap="round"/>
<path d="M199.78 149.67L176.93 142.22" stroke="#188F7B" stroke-miterlimit="10" stroke-linecap="round"/>
<path d="M196.7 157.41L185.29 152.16" stroke="#188F7B" stroke-miterlimit="10" stroke-linecap="round"/>
<path d="M192.83 164.79L179.54 156.92" stroke="#188F7B" stroke-miterlimit="10" stroke-linecap="round"/>
<path d="M188.22 171.72L171.67 159.43" stroke="#188F7B" stroke-miterlimit="10" stroke-linecap="round"/>
<path d="M182.91 178.15L171.94 168.07" stroke="#188F7B" stroke-miterlimit="10" stroke-linecap="round"/>
<path d="M176.33 182.33L169.06 174.22" stroke="#188F7B" stroke-miterlimit="10" stroke-linecap="round"/>
<path d="M170.44 189.16L163.15 178.94" stroke="#188F7B" stroke-miterlimit="10" stroke-linecap="round"/>
<path d="M163.41 193.64L156.41 181.28" stroke="#188F7B" stroke-miterlimit="10" stroke-linecap="round"/>
<path d="M155.96 197.36L147.21 177.32" stroke="#188F7B" stroke-miterlimit="10" stroke-linecap="round"/>
<path d="M148.16 200.29L143.31 185" stroke="#188F7B" stroke-miterlimit="10" stroke-linecap="round"/>
<path d="M140.1 202.4L137.55 190.02" stroke="#188F7B" stroke-miterlimit="10" stroke-linecap="round"/>
<path d="M131.86 203.65L130.3 187.85" stroke="#188F7B" stroke-miterlimit="10" stroke-linecap="round"/>
<path d="M123.62 187.8L123.54 204.04" stroke="#188F7B" stroke-miterlimit="10" stroke-linecap="round"/>
<path d="M116.62 190.88L115.23 203.56" stroke="#188F7B" stroke-miterlimit="10" stroke-linecap="round"/>
<path d="M109.71 189.72L107 202.23" stroke="#188F7B" stroke-miterlimit="10" stroke-linecap="round"/>
<path d="M102.96 187.85L98.96 200.04" stroke="#188F7B" stroke-miterlimit="10" stroke-linecap="round"/>
<path d="M95.9499 186.4L91.1899 197.04" stroke="#188F7B" stroke-miterlimit="10" stroke-linecap="round"/>
<path d="M93.02 177.3L83.78 193.24" stroke="#188F7B" stroke-miterlimit="10" stroke-linecap="round"/>
<path d="M86.7701 175.01L76.8 188.7" stroke="#188F7B" stroke-miterlimit="10" stroke-linecap="round"/>
<path d="M80.2701 172.42L70.3301 183.45" stroke="#188F7B" stroke-miterlimit="10" stroke-linecap="round"/>
<path d="M77.2801 166.75L66.3301 176.33" stroke="#188F7B" stroke-miterlimit="10" stroke-linecap="round"/>
<path d="M73.4901 161.87L59.3301 172.33" stroke="#188F7B" stroke-miterlimit="10" stroke-linecap="round"/>
<path d="M72.2099 154.22L54.6499 164.1" stroke="#188F7B" stroke-miterlimit="10" stroke-linecap="round"/>
<path d="M62.9701 151.26L50.8501 156.69" stroke="#188F7B" stroke-miterlimit="10" stroke-linecap="round"/>
<path d="M60.5101 144.77L47.8401 148.92" stroke="#188F7B" stroke-miterlimit="10" stroke-linecap="round"/>
<path d="M58.7399 138.05L45.6599 140.88" stroke="#188F7B" stroke-miterlimit="10" stroke-linecap="round"/>
<path d="M57.6801 131.19L44.3301 132.65" stroke="#188F7B" stroke-miterlimit="10" stroke-linecap="round"/>
<path d="M64.5201 124.34H43.8601" stroke="#188F7B" stroke-miterlimit="10" stroke-linecap="round"/>
<path d="M59.07 117.49L44.26 116.01" stroke="#188F7B" stroke-miterlimit="10" stroke-linecap="round"/>
<path d="M58.5901 111.34L43.3301 108.33" stroke="#188F7B" stroke-miterlimit="10" stroke-linecap="round"/>
<path d="M62.0501 104.3L47.6101 99.72" stroke="#188F7B" stroke-miterlimit="10" stroke-linecap="round"/>
<path d="M70.94 100.68L50.55 91.92" stroke="#188F7B" stroke-miterlimit="10" stroke-linecap="round"/>
<path d="M64.2901 91.27L55.3301 86.33" stroke="#188F7B" stroke-miterlimit="10" stroke-linecap="round"/>
<path d="M69.83 85.3499L58.75 77.45" stroke="#188F7B" stroke-miterlimit="10" stroke-linecap="round"/>
<path d="M72.9299 78.8801L63.9299 70.9301" stroke="#188F7B" stroke-miterlimit="10" stroke-linecap="round"/>
<path d="M84.0801 80.83L69.3301 65.33" stroke="#188F7B" stroke-miterlimit="10" stroke-linecap="round"/>
<path d="M84.2999 70.59L76.1899 59.67" stroke="#188F7B" stroke-miterlimit="10" stroke-linecap="round"/>
<path d="M90.0501 66.7601L83.1201 55.0601" stroke="#188F7B" stroke-miterlimit="10" stroke-linecap="round"/>
<path d="M99.69 69.9899L90.51 51.1899" stroke="#188F7B" stroke-miterlimit="10" stroke-linecap="round"/>
<path d="M104.68 60.26L101.33 49.33" stroke="#188F7B" stroke-miterlimit="10" stroke-linecap="round"/>
<path d="M109.25 59.04L106.27 45.85" stroke="#188F7B" stroke-miterlimit="10" stroke-linecap="round"/>
<path d="M116.07 57.8399L114.48 44.4399" stroke="#188F7B" stroke-miterlimit="10" stroke-linecap="round"/>
<path d="M122.98 57.35L122.79 43.88" stroke="#188F7B" stroke-miterlimit="10" stroke-linecap="round"/>
<path d="M131.55 28.7C131.86 28.7 132.11 28.45 132.11 28.14C132.11 27.83 131.86 27.58 131.55 27.58C131.24 27.58 130.99 27.83 130.99 28.14C130.99 28.45 131.24 28.7 131.55 28.7Z" fill="#188F7B" stroke="#188F7B" stroke-miterlimit="10" stroke-linecap="round"/>
<path d="M133.89 33.45C134.2 33.45 134.45 33.2 134.45 32.89C134.45 32.58 134.2 32.33 133.89 32.33C133.58 32.33 133.33 32.58 133.33 32.89C133.33 33.2 133.58 33.45 133.89 33.45Z" fill="#188F7B" stroke="#188F7B" stroke-miterlimit="10" stroke-linecap="round"/>
<path d="M152.04 33.0501C152.35 33.0501 152.6 32.8001 152.6 32.4901C152.6 32.1801 152.35 31.9301 152.04 31.9301C151.73 31.9301 151.48 32.1801 151.48 32.4901C151.48 32.8001 151.73 33.0501 152.04 33.0501Z" fill="#188F7B" stroke="#188F7B" stroke-miterlimit="10" stroke-linecap="round"/>
<path d="M151.85 40.38C152.16 40.38 152.41 40.13 152.41 39.82C152.41 39.51 152.16 39.26 151.85 39.26C151.54 39.26 151.29 39.51 151.29 39.82C151.29 40.13 151.55 40.38 151.85 40.38Z" fill="#188F7B" stroke="#188F7B" stroke-miterlimit="10" stroke-linecap="round"/>
<path d="M169.97 40.9399C170.28 40.9399 170.53 40.6899 170.53 40.3799C170.53 40.0699 170.28 39.8199 169.97 39.8199C169.66 39.8199 169.41 40.0699 169.41 40.3799C169.41 40.6899 169.66 40.9399 169.97 40.9399Z" fill="#188F7B" stroke="#188F7B" stroke-miterlimit="10" stroke-linecap="round"/>
<path d="M169.41 48.76C169.72 48.76 169.97 48.51 169.97 48.2C169.97 47.89 169.72 47.64 169.41 47.64C169.1 47.64 168.85 47.89 168.85 48.2C168.85 48.51 169.1 48.76 169.41 48.76Z" fill="#188F7B" stroke="#188F7B" stroke-miterlimit="10" stroke-linecap="round"/>
<path d="M188 54.09C188.31 54.09 188.56 53.84 188.56 53.53C188.56 53.22 188.31 52.97 188 52.97C187.69 52.97 187.44 53.22 187.44 53.53C187.44 53.84 187.69 54.09 188 54.09Z" fill="#188F7B" stroke="#188F7B" stroke-miterlimit="10" stroke-linecap="round"/>
<path d="M183.44 56.2C183.75 56.2 184 55.95 184 55.64C184 55.33 183.75 55.08 183.44 55.08C183.13 55.08 182.88 55.33 182.88 55.64C182.88 55.95 183.13 56.2 183.44 56.2Z" fill="#188F7B" stroke="#188F7B" stroke-miterlimit="10" stroke-linecap="round"/>
<path d="M201.27 67.28C201.58 67.28 201.83 67.03 201.83 66.72C201.83 66.41 201.58 66.16 201.27 66.16C200.96 66.16 200.71 66.41 200.71 66.72C200.71 67.03 200.96 67.28 201.27 67.28Z" fill="#188F7B" stroke="#188F7B" stroke-miterlimit="10" stroke-linecap="round"/>
<path d="M202.39 76.16C202.7 76.16 202.95 75.91 202.95 75.6C202.95 75.29 202.7 75.04 202.39 75.04C202.08 75.04 201.83 75.29 201.83 75.6C201.83 75.91 202.08 76.16 202.39 76.16Z" fill="#188F7B" stroke="#188F7B" stroke-miterlimit="10" stroke-linecap="round"/>
<path d="M212 85.12C212.31 85.12 212.56 84.87 212.56 84.56C212.56 84.25 212.31 84 212 84C211.69 84 211.44 84.25 211.44 84.56C211.44 84.87 211.69 85.12 212 85.12Z" fill="#188F7B" stroke="#188F7B" stroke-miterlimit="10" stroke-linecap="round"/>
<path d="M211.44 96.66C211.75 96.66 212 96.41 212 96.1C212 95.79 211.75 95.54 211.44 95.54C211.13 95.54 210.88 95.79 210.88 96.1C210.88 96.41 211.13 96.66 211.44 96.66Z" fill="#188F7B" stroke="#188F7B" stroke-miterlimit="10" stroke-linecap="round"/>
<path d="M221.17 115.16C221.48 115.16 221.73 114.91 221.73 114.6C221.73 114.29 221.48 114.04 221.17 114.04C220.86 114.04 220.61 114.29 220.61 114.6C220.61 114.91 220.86 115.16 221.17 115.16Z" fill="#188F7B" stroke="#188F7B" stroke-miterlimit="10" stroke-linecap="round"/>
<path d="M211.54 111.57C211.85 111.57 212.1 111.32 212.1 111.01C212.1 110.7 211.85 110.45 211.54 110.45C211.23 110.45 210.98 110.7 210.98 111.01C210.98 111.32 211.23 111.57 211.54 111.57Z" fill="#188F7B" stroke="#188F7B" stroke-miterlimit="10" stroke-linecap="round"/>
<path d="M219.94 130.88C220.25 130.88 220.5 130.63 220.5 130.32C220.5 130.01 220.25 129.76 219.94 129.76C219.63 129.76 219.38 130.01 219.38 130.32C219.38 130.63 219.63 130.88 219.94 130.88Z" fill="#188F7B" stroke="#188F7B" stroke-miterlimit="10" stroke-linecap="round"/>
<path d="M212.86 132.78C213.17 132.78 213.42 132.53 213.42 132.22C213.42 131.91 213.17 131.66 212.86 131.66C212.55 131.66 212.3 131.91 212.3 132.22C212.3 132.53 212.56 132.78 212.86 132.78Z" fill="#188F7B" stroke="#188F7B" stroke-miterlimit="10" stroke-linecap="round"/>
<path d="M216.92 149.86C217.23 149.86 217.48 149.61 217.48 149.3C217.48 148.99 217.23 148.74 216.92 148.74C216.61 148.74 216.36 148.99 216.36 149.3C216.36 149.61 216.61 149.86 216.92 149.86Z" fill="#188F7B" stroke="#188F7B" stroke-miterlimit="10" stroke-linecap="round"/>
<path d="M209.59 150.21C209.9 150.21 210.15 149.96 210.15 149.65C210.15 149.34 209.9 149.09 209.59 149.09C209.28 149.09 209.03 149.34 209.03 149.65C209.03 149.96 209.28 150.21 209.59 150.21Z" fill="#188F7B" stroke="#188F7B" stroke-miterlimit="10" stroke-linecap="round"/>
<path d="M209.77 169.55C210.08 169.55 210.33 169.3 210.33 168.99C210.33 168.68 210.08 168.43 209.77 168.43C209.46 168.43 209.21 168.68 209.21 168.99C209.21 169.3 209.46 169.55 209.77 169.55Z" fill="#188F7B"/>
<path d="M202.54 168.35C202.85 168.35 203.1 168.1 203.1 167.79C203.1 167.48 202.85 167.23 202.54 167.23C202.23 167.23 201.98 167.48 201.98 167.79C201.98 168.1 202.23 168.35 202.54 168.35Z" fill="#188F7B" stroke="#188F7B" stroke-miterlimit="10"/>
<path d="M198.62 187.29C198.93 187.29 199.18 187.04 199.18 186.73C199.18 186.42 198.93 186.17 198.62 186.17C198.31 186.17 198.06 186.42 198.06 186.73C198.06 187.04 198.31 187.29 198.62 187.29Z" fill="#188F7B" stroke="#188F7B" stroke-miterlimit="10"/>
<path d="M191.8 184.57C192.11 184.57 192.36 184.32 192.36 184.01C192.36 183.7 192.11 183.45 191.8 183.45C191.49 183.45 191.24 183.7 191.24 184.01C191.24 184.32 191.49 184.57 191.8 184.57Z" fill="#188F7B" stroke="#188F7B" stroke-miterlimit="10"/>
<path d="M183.95 202.25C184.26 202.25 184.51 202 184.51 201.69C184.51 201.38 184.26 201.13 183.95 201.13C183.64 201.13 183.39 201.38 183.39 201.69C183.39 202 183.64 202.25 183.95 202.25Z" fill="#188F7B" stroke="#188F7B" stroke-miterlimit="10"/>
<path d="M177.86 198.15C178.17 198.15 178.42 197.9 178.42 197.59C178.42 197.28 178.17 197.03 177.86 197.03C177.55 197.03 177.3 197.28 177.3 197.59C177.3 197.9 177.55 198.15 177.86 198.15Z" fill="#188F7B" stroke="#188F7B" stroke-miterlimit="10"/>
<path d="M165.23 213.23C165.54 213.23 165.79 212.98 165.79 212.67C165.79 212.36 165.54 212.11 165.23 212.11C164.92 212.11 164.67 212.36 164.67 212.67C164.67 212.98 164.92 213.23 165.23 213.23Z" fill="#188F7B" stroke="#188F7B" stroke-miterlimit="10"/>
<path d="M163.61 207.14C163.92 207.14 164.17 206.89 164.17 206.58C164.17 206.27 163.92 206.02 163.61 206.02C163.3 206.02 163.05 206.27 163.05 206.58C163.05 206.88 163.3 207.14 163.61 207.14Z" fill="#188F7B" stroke="#188F7B" stroke-miterlimit="10"/>
<path d="M148.9 218.46C149.21 218.46 149.46 218.21 149.46 217.9C149.46 217.59 149.21 217.34 148.9 217.34C148.59 217.34 148.34 217.59 148.34 217.9C148.34 218.21 148.59 218.46 148.9 218.46Z" fill="#188F7B" stroke="#188F7B" stroke-miterlimit="10"/>
<path d="M143.05 215.05C143.36 215.05 143.61 214.8 143.61 214.49C143.61 214.18 143.36 213.93 143.05 213.93C142.74 213.93 142.49 214.18 142.49 214.49C142.49 214.8 142.74 215.05 143.05 215.05Z" fill="#188F7B" stroke="#188F7B" stroke-miterlimit="10"/>
<path d="M128.68 217.35C128.99 217.35 129.24 217.1 129.24 216.79C129.24 216.48 128.99 216.23 128.68 216.23C128.37 216.23 128.12 216.48 128.12 216.79C128.12 217.1 128.37 217.35 128.68 217.35Z" fill="#188F7B" stroke="#188F7B" stroke-miterlimit="10"/>
<path d="M125.86 221.23C126.17 221.23 126.42 220.98 126.42 220.67C126.42 220.36 126.17 220.11 125.86 220.11C125.55 220.11 125.3 220.36 125.3 220.67C125.3 220.98 125.55 221.23 125.86 221.23Z" fill="#188F7B" stroke="#188F7B" stroke-miterlimit="10"/>
<path d="M108.56 220.5C108.87 220.5 109.12 220.25 109.12 219.94C109.12 219.63 108.87 219.38 108.56 219.38C108.25 219.38 108 219.63 108 219.94C108 220.25 108.25 220.5 108.56 220.5Z" fill="#188F7B" stroke="#188F7B" stroke-miterlimit="10"/>
<path d="M104.37 215.99C104.68 215.99 104.93 215.74 104.93 215.43C104.93 215.12 104.68 214.87 104.37 214.87C104.06 214.87 103.81 215.12 103.81 215.43C103.81 215.74 104.06 215.99 104.37 215.99Z" fill="#188F7B" stroke="#188F7B" stroke-miterlimit="10"/>
<path d="M88.6301 214.51C88.9401 214.51 89.1901 214.26 89.1901 213.95C89.1901 213.64 88.9401 213.39 88.6301 213.39C88.3201 213.39 88.0701 213.64 88.0701 213.95C88.0701 214.26 88.3201 214.51 88.6301 214.51Z" fill="#188F7B" stroke="#188F7B" stroke-miterlimit="10"/>
<path d="M88.31 206.99C88.62 206.99 88.87 206.74 88.87 206.43C88.87 206.12 88.62 205.87 88.31 205.87C88 205.87 87.75 206.12 87.75 206.43C87.76 206.74 88.01 206.99 88.31 206.99Z" fill="#188F7B" stroke="#188F7B" stroke-miterlimit="10"/>
<path d="M69.54 206.51C69.85 206.51 70.1 206.26 70.1 205.95C70.1 205.64 69.85 205.39 69.54 205.39C69.23 205.39 68.98 205.64 68.98 205.95C68.98 206.26 69.23 206.51 69.54 206.51Z" fill="#188F7B" stroke="#188F7B" stroke-miterlimit="10"/>
<path d="M68.77 200.81C69.08 200.81 69.33 200.56 69.33 200.25C69.33 199.94 69.08 199.69 68.77 199.69C68.46 199.69 68.21 199.94 68.21 200.25C68.21 200.56 68.46 200.81 68.77 200.81Z" fill="#188F7B" stroke="#188F7B" stroke-miterlimit="10"/>
<path d="M50.57 194.29C50.88 194.29 51.13 194.04 51.13 193.73C51.13 193.42 50.88 193.17 50.57 193.17C50.26 193.17 50.01 193.42 50.01 193.73C50.01 194.04 50.26 194.29 50.57 194.29Z" fill="#188F7B" stroke="#188F7B" stroke-miterlimit="10"/>
<path d="M54.1999 187.92C54.5099 187.92 54.7599 187.67 54.7599 187.36C54.7599 187.05 54.5099 186.8 54.1999 186.8C53.8899 186.8 53.6399 187.05 53.6399 187.36C53.6399 187.67 53.8899 187.92 54.1999 187.92Z" fill="#188F7B" stroke="#188F7B" stroke-miterlimit="10"/>
<path d="M37.78 177.69C38.09 177.69 38.34 177.44 38.34 177.13C38.34 176.82 38.09 176.57 37.78 176.57C37.47 176.57 37.22 176.82 37.22 177.13C37.22 177.44 37.47 177.69 37.78 177.69Z" fill="#188F7B" stroke="#188F7B" stroke-miterlimit="10"/>
<path d="M42.6801 172.23C42.9901 172.23 43.2401 171.98 43.2401 171.67C43.2401 171.36 42.9901 171.11 42.6801 171.11C42.3701 171.11 42.1201 171.36 42.1201 171.67C42.1201 171.98 42.3701 172.23 42.6801 172.23Z" fill="#188F7B" stroke="#188F7B" stroke-miterlimit="10"/>
<path d="M28.81 158.76C29.12 158.76 29.37 158.51 29.37 158.2C29.37 157.89 29.12 157.64 28.81 157.64C28.5 157.64 28.25 157.89 28.25 158.2C28.25 158.51 28.5 158.76 28.81 158.76Z" fill="#188F7B"/>
<path d="M34.7499 154.46C35.0599 154.46 35.3099 154.21 35.3099 153.9C35.3099 153.59 35.0599 153.34 34.7499 153.34C34.4399 153.34 34.1899 153.59 34.1899 153.9C34.1899 154.21 34.4399 154.46 34.7499 154.46Z" fill="#188F7B"/>
<path d="M28.55 138.35C28.86 138.35 29.11 138.1 29.11 137.79C29.11 137.48 28.86 137.23 28.55 137.23C28.24 137.23 27.99 137.48 27.99 137.79C27.99 138.1 28.24 138.35 28.55 138.35Z" fill="#188F7B"/>
<path d="M35.6801 135.23C35.9901 135.23 36.2401 134.98 36.2401 134.67C36.2401 134.36 35.9901 134.11 35.6801 134.11C35.3701 134.11 35.1201 134.36 35.1201 134.67C35.1301 134.98 35.3801 135.23 35.6801 135.23Z" fill="#188F7B"/>
<path d="M27.6601 119.72C27.9701 119.72 28.2201 119.47 28.2201 119.16C28.2201 118.85 27.9701 118.6 27.6601 118.6C27.3501 118.6 27.1001 118.85 27.1001 119.16C27.1001 119.47 27.3501 119.72 27.6601 119.72Z" fill="#188F7B"/>
<path d="M30.9301 115.95C31.2401 115.95 31.4901 115.7 31.4901 115.39C31.4901 115.08 31.2401 114.83 30.9301 114.83C30.6201 114.83 30.3701 115.08 30.3701 115.39C30.3701 115.7 30.6201 115.95 30.9301 115.95Z" fill="#188F7B"/>
<path d="M29.82 99.54C30.13 99.54 30.38 99.29 30.38 98.98C30.38 98.67 30.13 98.42 29.82 98.42C29.51 98.42 29.26 98.67 29.26 98.98C29.26 99.29 29.51 99.54 29.82 99.54Z" fill="#188F7B"/>
<path d="M35.2099 96.98C35.5199 96.98 35.7699 96.73 35.7699 96.42C35.7699 96.11 35.5199 95.86 35.2099 95.86C34.8999 95.86 34.6499 96.11 34.6499 96.42C34.6499 96.73 34.8999 96.98 35.2099 96.98Z" fill="#188F7B"/>
<path d="M38.8901 77.29C39.2001 77.29 39.4501 77.04 39.4501 76.73C39.4501 76.42 39.2001 76.17 38.8901 76.17C38.5801 76.17 38.3301 76.42 38.3301 76.73C38.3301 77.04 38.5801 77.29 38.8901 77.29Z" fill="#188F7B"/>
<path d="M41.29 83.63C41.6 83.63 41.85 83.38 41.85 83.07C41.85 82.76 41.6 82.51 41.29 82.51C40.98 82.51 40.73 82.76 40.73 83.07C40.73 83.38 40.98 83.63 41.29 83.63Z" fill="#188F7B"/>
<path d="M47.9999 62.16C48.3099 62.16 48.5599 61.91 48.5599 61.6C48.5599 61.29 48.3099 61.04 47.9999 61.04C47.6899 61.04 47.4399 61.29 47.4399 61.6C47.4399 61.91 47.6899 62.16 47.9999 62.16Z" fill="#188F7B"/>
<path d="M55.1801 63.83C55.4901 63.83 55.7401 63.58 55.7401 63.27C55.7401 62.96 55.4901 62.71 55.1801 62.71C54.8701 62.71 54.6201 62.96 54.6201 63.27C54.6201 63.58 54.8701 63.83 55.1801 63.83Z" fill="#188F7B"/>
<path d="M64.1601 46.7C64.4701 46.7 64.7201 46.45 64.7201 46.14C64.7201 45.83 64.4701 45.58 64.1601 45.58C63.8501 45.58 63.6001 45.83 63.6001 46.14C63.6001 46.45 63.8501 46.7 64.1601 46.7Z" fill="#188F7B"/>
<path d="M64.7199 52.3001C65.0299 52.3001 65.2799 52.0501 65.2799 51.7401C65.2799 51.4301 65.0299 51.1801 64.7199 51.1801C64.4099 51.1801 64.1599 51.4301 64.1599 51.7401C64.1599 52.0501 64.4099 52.3001 64.7199 52.3001Z" fill="#188F7B"/>
<path d="M82.09 37.99C82.4 37.99 82.65 37.74 82.65 37.43C82.65 37.12 82.4 36.87 82.09 36.87C81.78 36.87 81.53 37.12 81.53 37.43C81.53 37.74 81.78 37.99 82.09 37.99Z" fill="#188F7B"/>
<path d="M82.09 44.48C82.4 44.48 82.65 44.23 82.65 43.92C82.65 43.61 82.4 43.36 82.09 43.36C81.78 43.36 81.53 43.61 81.53 43.92C81.53 44.23 81.78 44.48 82.09 44.48Z" fill="#188F7B"/>
<path d="M99.1899 29.89C99.4999 29.89 99.7499 29.64 99.7499 29.33C99.7499 29.02 99.4999 28.77 99.1899 28.77C98.8799 28.77 98.6299 29.02 98.6299 29.33C98.6299 29.64 98.8899 29.89 99.1899 29.89Z" fill="#188F7B" stroke="#188F7B" stroke-miterlimit="10"/>
<path d="M109.81 34.3099C110.12 34.3099 110.37 34.0599 110.37 33.7499C110.37 33.4399 110.12 33.1899 109.81 33.1899C109.5 33.1899 109.25 33.4399 109.25 33.7499C109.25 34.0599 109.5 34.3099 109.81 34.3099Z" fill="#188F7B" stroke="#188F7B" stroke-miterlimit="10"/>
<path d="M118.65 28.12C118.96 28.12 119.21 27.87 119.21 27.56C119.21 27.25 118.96 27 118.65 27C118.34 27 118.09 27.25 118.09 27.56C118.09 27.87 118.34 28.12 118.65 28.12Z" fill="#188F7B"/>
<path d="M128.38 34.3099C128.69 34.3099 128.94 34.0599 128.94 33.7499C128.94 33.4399 128.69 33.1899 128.38 33.1899C128.07 33.1899 127.82 33.4399 127.82 33.7499C127.82 34.0599 128.07 34.3099 128.38 34.3099Z" fill="#188F7B"/>
<path d="M34.8499 87.08C35.0999 87.08 35.3099 86.87 35.3099 86.62C35.3099 86.37 35.0999 86.16 34.8499 86.16C34.5999 86.16 34.3899 86.37 34.3899 86.62C34.3899 86.87 34.5899 87.08 34.8499 87.08Z" fill="#188F7B" stroke="#188F7B" stroke-miterlimit="10"/>
<path d="M50.49 180.29C50.74 180.29 50.95 180.08 50.95 179.83C50.95 179.58 50.74 179.37 50.49 179.37C50.24 179.37 50.03 179.58 50.03 179.83C50.03 180.09 50.24 180.29 50.49 180.29Z" fill="#188F7B" stroke="#188F7B" stroke-miterlimit="10"/>
<path d="M78.8001 205.39C79.0501 205.39 79.2601 205.18 79.2601 204.93C79.2601 204.68 79.0501 204.47 78.8001 204.47C78.5501 204.47 78.3401 204.68 78.3401 204.93C78.3401 205.18 78.5501 205.39 78.8001 205.39Z" fill="#188F7B" stroke="#188F7B" stroke-miterlimit="10"/>
<path d="M154.95 210.65C155.2 210.65 155.41 210.44 155.41 210.19C155.41 209.94 155.2 209.73 154.95 209.73C154.7 209.73 154.49 209.94 154.49 210.19C154.49 210.44 154.7 210.65 154.95 210.65Z" fill="#188F7B" stroke="#188F7B" stroke-miterlimit="10"/>
<path d="M213.9 141.86C214.15 141.86 214.36 141.65 214.36 141.4C214.36 141.15 214.15 140.94 213.9 140.94C213.65 140.94 213.44 141.15 213.44 141.4C213.44 141.65 213.65 141.86 213.9 141.86Z" fill="#188F7B" stroke="#188F7B" stroke-miterlimit="10" stroke-linecap="round"/>
<path d="M196.89 58.03C197.14 58.03 197.35 57.82 197.35 57.57C197.35 57.32 197.14 57.11 196.89 57.11C196.64 57.11 196.43 57.32 196.43 57.57C196.43 57.82 196.63 58.03 196.89 58.03Z" fill="#188F7B" stroke="#188F7B" stroke-miterlimit="10" stroke-linecap="round"/>
<path d="M217.34 103.06C217.6 103.06 217.8 102.85 217.8 102.6C217.8 102.35 217.59 102.14 217.34 102.14C217.09 102.14 216.88 102.35 216.88 102.6C216.88 102.85 217.09 103.06 217.34 103.06Z" fill="#188F7B" stroke="#188F7B" stroke-miterlimit="10" stroke-linecap="round"/>
</g>
</g>
<defs>
<filter id="filter0_d_95_8574" x="0" y="0" width="248" height="248" filterUnits="userSpaceOnUse" color-interpolation-filters="sRGB">
<feFlood flood-opacity="0" result="BackgroundImageFix"/>
<feColorMatrix in="SourceAlpha" type="matrix" values="0 0 0 0 0 0 0 0 0 0 0 0 0 0 0 0 0 0 127 0" result="hardAlpha"/>
<feOffset/>
<feGaussianBlur stdDeviation="9"/>
<feComposite in2="hardAlpha" operator="out"/>
<feColorMatrix type="matrix" values="0 0 0 0 0 0 0 0 0 0 0 0 0 0 0 0 0 0 0.15 0"/>
<feBlend mode="normal" in2="BackgroundImageFix" result="effect1_dropShadow_95_8574"/>
<feBlend mode="normal" in="SourceGraphic" in2="effect1_dropShadow_95_8574" result="shape"/>
</filter>
<filter id="filter1_f_95_8574" x="48" y="48" width="152" height="152" filterUnits="userSpaceOnUse" color-interpolation-filters="sRGB">
<feFlood flood-opacity="0" result="BackgroundImageFix"/>
<feBlend mode="normal" in="SourceGraphic" in2="BackgroundImageFix" result="shape"/>
<feGaussianBlur stdDeviation="2" result="effect1_foregroundBlur_95_8574"/>
</filter>
<radialGradient id="paint0_radial_95_8574" cx="0" cy="0" r="1" gradientUnits="userSpaceOnUse" gradientTransform="translate(123.5 124) rotate(90) scale(96 96.5)">
<stop stop-color="#188F7B"/>
<stop offset="1" stop-color="#188F7B" stop-opacity="0"/>
</radialGradient>
<clipPath id="clip0_95_8574">
<rect width="199.83" height="199.88" fill="white" transform="translate(24 24)"/>
</clipPath>
</defs>
</svg>
